<svg width="195" height="782" fill="none" xmlns="http://www.w3.org/2000/svg"><g clip-path="url(#clip0)"><path d="M1 11h193v770H1V11z" fill="#FFF5E7"/><path d="M1 11h193v770H1V11z" stroke="#4B3B00" stroke-width="2"/><path d="M1 11h193v770H1V11z" stroke="url(#paint0_linear)" stroke-width="2"/><path d="M.481 12.26h195v119.999l-97.5-46-97.5 46v-120z" fill="#FFEEB4"/><path d="M0 137.002l97.915-46.984 97.914 46.984" stroke="#9B7A04" stroke-width="2.369"/><path d="M0 143.319l97.915-46.984 97.914 46.984" stroke="#9B7A04" stroke-width="2.369"/><path d="M0 140.16l97.915-46.983 97.914 46.983" stroke="#FFF9E2" stroke-width="2.369"/><path d="M0 726.376h195.829" stroke="#4B3B00" stroke-width="2.369"/><rect x=".481" y=".259" width="195" height="24" rx="7" fill="#FFEEB4"/><path d="M54.458 40.314c.306-.605.466-1.17.267-1.844l.484.204 1.834.777c2.929 1.245 5.719 1.85 8.527 1.85.359 0 .723-.011 1.081-.031 1.1-.063 2.372-.235 3.472-1.047 1.291-.952 1.696-2.768.917-4.133-.431-.76-1.119-1.146-2.044-1.146-.508 0-1.087.12-1.718.356-.279.103-.585.236-.694.506a.534.534 0 00.02.44.386.386 0 00.357.234c.151 0 .296-.077.436-.152.06-.035.122-.065.186-.089.122-.037.241-.08.356-.123.169-.065.34-.12.516-.163.16-.036.322-.055.486-.057.671 0 1.139.361 1.429 1.103.368.942-.19 2.105-1.269 2.65-.906.458-1.907.562-2.854.606a17.54 17.54 0 01-.798.019c-2.834 0-5.71-.682-9.051-2.144-3.636-1.595-6.684-2.883-10.019-3.801-1.713-.47-3.56-.906-5.473-.906-.81-.004-1.62.081-2.412.253-2.085.457-3.803 1.533-4.967 3.113-1.164 1.581-1.67 3.538-1.449 5.642.248 2.36 1.455 3.999 3.494 4.74a6.251 6.251 0 002.135.393c1.46 0 2.834-.567 4.083-1.684 1.22-1.092 1.812-2.402 1.762-3.894 0-.025 0-.06.005-.097.01-.14.024-.332-.109-.474a.457.457 0 00-.352-.132h-.04c-.475.023-.486.45-.49.633 0 .03 0 .06-.004.088-.003.06 0 .115 0 .17v.121c-.117 1.788-1.495 3.471-3.135 3.832-.243.054-.49.08-.739.08-1.438 0-2.842-.898-3.58-2.288-.61-1.15-.771-2.445-.493-3.96.594-3.252 3.38-5.524 6.766-5.524.293 0 .587.017.879.05 3.966.456 7.56 1.853 10.556 3.16a.43.43 0 01.165.1.818.818 0 01-.095.227l-.027.054-1.081 2.097a501.31 501.31 0 00-3.536 6.95c-.499 1.01-1.012 2.033-1.51 3.024-1.604 3.199-3.264 6.508-4.71 9.856a7.245 7.245 0 00-.555 3.523c.11 1.283 1.07 2.213 2.293 2.213.278 0 .554-.045.818-.133l.473-.156-.425-.263c-.81-.5-1.033-1.011-.881-2.023.32-2.127 1.286-4.06 2.22-5.93l.24-.48c2.636-5.298 5.354-10.667 7.984-15.859l.269-.53zM161.226 60.187c.769-2.646 2.055-5.11 3.932-7.53.56-.724.798-1.412.747-2.163-.057-.837-.455-1.263-1.184-1.263-.103 0-.206.008-.309.022-.132.019-.271.042-.402.064-.288.057-.581.09-.875.098-.082 0-.165-.004-.247-.013-.331-.036-.541-.123-.649-.266-.109-.143-.136-.37-.086-.694.021-.14.05-.278.08-.424.05-.22.087-.441.113-.665.073-.772-.438-1.335-1.302-1.435a1.295 1.295 0 00-.139-.008c-.622 0-.633.553-.638.79 0 .077-.011.155-.015.198-.491 6.03-4.829 11.828-5.769 12.874-.675.752-1.379 1.224-2.153 1.444a2.809 2.809 0 01-.723.128c-.394 0-.622-.167-.779-1.082a3.903 3.903 0 01-.03-1.024c.101-1.16.437-2.267.752-3.198l.004-.014c.279-.822.418-1.235.657-1.41.238-.177.689-.178 1.504-.181 1.454-.006 2.677-.495 3.636-1.455.264-.266 1.933-2.105.137-3.837-.541-.522-1.322-.775-2.336-.592-.619.113-1.208.382-1.851.847-.846.612-1.523 1.362-2.02 1.948a2.788 2.788 0 01-1.712.967 1.092 1.092 0 01-.189.02.19.19 0 01-.111-.02s-.041-.06.01-.294c.175-.827.185-1.568.028-2.266-.088-.395-.273-1.216-1.19-1.363-.752-.12-1.299.221-1.624 1.016-.494 1.023-.208 2.52.641 3.34.327.317.392.586.259 1.064-.535 1.92-1.415 3.616-2.616 5.042-.536.636-1.203 1.428-2.063 1.904-.199.11-.458.236-.7.236a.726.726 0 01-.463-.177c-.34-.273-.442-.628-.331-1.15.075-.347.17-.689.286-1.024.896-2.577 5.757-12.324 6.392-13.47a.499.499 0 00.484.34c.286 0 .604-.2.86-.359l.092-.057c2.755-1.68 4.803-3.604 6.26-5.882.478-.738.811-1.56.981-2.424.137-.709.027-1.306-.318-1.725-.374-.457-.999-.665-1.78-.593-1.238.114-2.329.664-3.432 1.728-1.538 1.481-2.899 3.276-4.414 5.82-1.996 3.35-3.702 6.918-5.354 10.369-.569 1.186-1.156 2.413-1.747 3.613-.59 1.2-.921 2.386-.974 3.506-.047 1-.727 1.365-1.52 1.786a.472.472 0 01-.212.067c-.184 0-.239-.27-.254-.388-.05-.381.03-.769.125-1.13.639-2.464 1.774-4.719 3.084-7.199.294-.557.595-1.235.599-2.033a2.163 2.163 0 00-.15-.83 2.164 2.164 0 00-.458-.708 2.026 2.026 0 00-1.444-.604 2.142 2.142 0 00-.945.223c-.529.257-.967.643-1.333.983-.477.442-.891.943-1.292 1.428l-.03.036.012-.033c.293-.793.187-1.49-.315-2.069a1.704 1.704 0 00-1.356-.615 2.836 2.836 0 00-.578.067c-.885.184-1.567.67-2.062 1.072-.948.771-1.774 1.676-2.564 2.576.179-.405.363-.824.524-1.247.243-.636.125-1.263-.351-1.86-.174-.219-.388-.442-.661-.442-.326 0-.529.32-.648.561a234.707 234.707 0 01-1.9 3.634 804.56 804.56 0 00-.83 1.569c-.147.279-.294.556-.443.833-.745 1.393-1.514 2.833-2.032 4.37-.397 1.186-1.267 1.93-2.061 2.503-.22.158-.343.182-.396.182-.162 0-.217-.326-.236-.52-.052-.54.072-1.094.193-1.57.558-2.201 1.61-4.23 2.639-6.12 1.273-2.336 2.545-4.722 3.776-7.03 1.735-3.252 3.529-6.616 5.35-9.891.448-.804.529-1.684.221-2.414-.298-.716-.942-1.242-1.81-1.472a4.956 4.956 0 00-1.287-.169c-.767 0-1.575.17-2.47.516-2.21.857-3.814 2.5-5.144 3.974-3.332 3.686-5.838 7.902-7.651 11.161-.193.349-.335.45-.632.45-.043 0-.09 0-.14-.008a53.306 53.306 0 00-5.103-.258 41.882 41.882 0 00-5.713.38c-2.168.3-4.963.879-7.356 2.705-1.373 1.048-2.095 2.27-2.21 3.739a8.13 8.13 0 001.976 5.986 8.047 8.047 0 002.549 1.945 8.004 8.004 0 003.546.803c2.796 0 5.134-1.292 6.949-3.838 1.895-2.659 3.562-5.527 5.175-8.298l.971-1.665c.165-.282.285-.368.512-.368.053 0 .106.004.158.011 1.723.232 3.674.495 5.546.918a.778.778 0 01.082.03.719.719 0 00.274.07c.089 0 .305-.032.397-.332.136-.452-.551-.723-.601-.752-.019-.01-.88-.434-1.282-.484a5.344 5.344 0 01-.356-.052c-.616-.12-1.245-.204-1.851-.286a33.31 33.31 0 01-1.78-.273.932.932 0 01.1-.193c.019-.03.038-.062.055-.093 1.911-3.418 3.696-6.126 5.619-8.523 1.307-1.632 2.77-3.324 4.601-4.63 1.41-1.005 2.796-1.451 4.251-1.368.43.024.495.098.503.113.009.014.044.11-.146.514-.055.114-.113.23-.171.343l-.021.042c-2.09 4.102-10.107 19.83-10.885 21.608-.555 1.27-1.139 2.759-1.037 4.377l.005.085c.049.804.11 1.806 1.112 2.156.221.078.453.118.686.12.678 0 1.336-.344 2.01-1.05.246-.26.474-.527.714-.81l.044-.05c.019.06.044.12.075.175.027.046.053.096.08.147.151.285.357.675.767.692h.022c.389 0 .634-.773.661-.828 1.675-3.284 3.814-7.063 6.981-10.202.793-.789 1.527-1.481 2.421-1.96.136-.082.289-.131.447-.143a.265.265 0 01.181.06c.058.05.07.06-.091.275a1.803 1.803 0 00-.132.193c-.415.754-.843 1.518-1.256 2.26a212.931 212.931 0 00-2.015 3.65c-.727 1.363-1.542 2.966-1.95 4.743-.108.471-.181 1.166.426 1.76.172.167.319.297.508.297.257 0 .403-.232.512-.46a50.42 50.42 0 011.84-3.517c1.718-2.962 3.681-6.044 6.37-8.517.341-.313.682-.606 1.112-.74a.799.799 0 01.229-.039.356.356 0 01.303.153c.045.057.054.07-.079.237-.033.041-.066.084-.097.13-1.001 1.528-1.798 2.836-2.435 4.247-.967 2.143-1.759 4.101-1.667 6.368.053 1.33.685 2.122 1.69 2.122.414 0 .867-.139 1.347-.413.493-.283.882-.679 1.207-1.029.044-.05.084-.105.118-.164l.02-.03c.605 1.172 1.327 1.677 2.38 1.677.245-.002.49-.026.731-.073.652-.119 1.272-.432 1.895-.956 2.063-1.734 3.599-4.12 4.834-7.522.239-.66.387-1.005.875-1.005.078.001.157.009.234.023a.385.385 0 00.124 0 17.25 17.25 0 00-1.592 3.68c-.454 1.552-.478 2.824-.074 4.006.366 1.072 1.014 1.643 1.925 1.7.163.01.327.014.487.014 2.126 0 3.948-.889 5.269-2.571 2.434-3.098 3.948-6.647 5.209-10.04.521.254 1.109.369 1.864.369.356 0 .721-.025 1.075-.049h.007c-1.322 1.71-2.496 3.28-3.449 5.065-.846 1.585-1.743 3.456-1.667 5.62.051 1.452.896 1.669 1.394 1.669.244-.004.487-.044.719-.117 1.302-.389 2.162-1.339 2.993-2.26.119-.133.236-.261.356-.39.053-.057.177-.19.163-.373a.392.392 0 00-.16-.28.475.475 0 00-.295-.106.567.567 0 00-.39.177c-.147.137-.293.278-.435.414-.319.307-.649.625-.992.906-.059.048-.12.102-.183.157-.233.203-.497.434-.727.434a.371.371 0 01-.204-.067c-.223-.143-.185-.386-.01-.913.03-.082.056-.16.078-.237zm-49.369-10.029l-.981 1.633c-.906 1.508-1.761 2.934-2.655 4.373-.156.251-.31.503-.463.756-.862 1.406-1.754 2.861-2.878 4.106-1.166 1.293-2.633 2.08-4.362 2.342-.201.03-.404.046-.608.046-.925 0-1.837-.313-2.71-.93-2.173-1.536-3.239-3.745-3.163-6.568.051-1.938 1.123-3.356 3.381-4.464 1.807-.887 3.749-1.178 5.578-1.36a37.513 37.513 0 013.752-.178c1.538-.001 3.171.076 5.109.244zm41.253 3.367h-.155c-.052 0-.095.004-.142.004-.226 0-.264-.043-.286-.083-.038-.078.176-.319.291-.448.077-.088.157-.178.222-.266.785-1.098 1.546-1.888 2.395-2.488l.141-.102c.227-.167.463-.34.672-.34.097.003.191.04.265.104.431.337.594.87.441 1.462-.213.84-.895 1.324-1.534 1.686-.529.3-1.162.46-1.993.503a1.174 1.174 0 00-.317-.032zm1.576-17.584c.144-.087.297-.173.43-.173.068 0 .134.024.188.066.142.107.14.263.104.568v.026c-.1.845-.405 1.649-.934 2.46-1.524 2.326-3.76 3.979-5.737 5.345-.08.05-.163.094-.248.133-.062.03-.126.063-.189.097 1.183-2.087 2.561-4.313 4.128-6.418.661-.891 1.421-1.602 2.258-2.105v.001z" fill="#786765"/><path d="M81.487 61.975c.606-.581 1.098-1.133 1.435-1.857l.109-.233-.239-.085a.848.848 0 00-.28-.052c-.313 0-.476.212-.585.352a1.094 1.094 0 01-.08.099c-.074.071-.144.145-.215.219-.247.255-.479.496-.762.67l-.1.063c-.165.105-.32.205-.463.205a.356.356 0 01-.19-.06c-.202-.126-.198-.333-.18-.665v-.041c.058-1.044.396-2.023.768-3.017.752-2.012 1.8-3.922 2.813-5.774l.589-1.08c.454-.84.342-1.596-.324-2.183-.295-.26-.505-.431-.727-.431-.33 0-.487.344-.668.742-.067.146-.139.29-.22.452-.463-.599-1.115-.883-2.019-.883-.094 0-.193 0-.295.009a5.899 5.899 0 00-3.335 1.242c-2.202 1.706-3.844 3.992-4.88 6.793-.4 1.08-.817 2.345-.705 3.712.112 1.367.554 2.142 1.463 2.483l-2.472.574.44-1.994c.564-2.562 1.117-5.078 1.672-7.593.074-.282.178-.555.311-.814.075-.16.152-.327.217-.5.25-.655.015-1.29-.61-1.66a1.102 1.102 0 00-.557-.166c-.272 0-.666.127-1.007.73-.05.091-.097.184-.141.273-.08.18-.182.349-.302.503-1.719 1.994-4.064 4.543-6.946 6.596-.094.066-.189.147-.28.224-.227.193-.462.391-.676.391a.44.44 0 01-.278-.114c-.35-.283-.213-.678.035-1.25l.066-.155c.127-.302.253-.604.378-.908 1.057-2.542 2.147-5.171 3.942-7.355.324-.394.11-.787-.005-.996a.638.638 0 00-.571-.357.819.819 0 00-.364.092c-.931.465-1.987.997-2.397 2.225-.24.723-.52 1.502-.877 2.45-.284.753-.58 1.518-.866 2.256-.588 1.517-1.19 3.078-1.735 4.649l-.265-.017c-.035 0-.07-.004-.103-.004-.513 0-.727.266-.878.46-.026.031-.05.063-.076.091-.26.29-.579.62-.98.856l-.077.046c-.144.087-.281.17-.405.17a.302.302 0 01-.158-.046c-.211-.122-.213-.318-.198-.654v-.037c.04-.926.299-1.795.672-2.815.803-2.194 1.945-4.272 3.05-6.281l.424-.77c.484-.886.37-1.64-.339-2.244-.297-.254-.493-.408-.705-.408-.317 0-.463.326-.636.702-.077.17-.16.337-.246.51-.516-.642-1.1-.9-1.983-.9h-.03c-1.443.01-2.764.507-3.928 1.476-2.463 2.05-4.164 4.754-5.052 8.035-.327 1.206-.342 2.26-.048 3.214.33 1.082 1.058 1.704 1.99 1.704.424-.01.84-.117 1.216-.313.834-.41 1.504-1.038 2.104-1.654.529-.546.991-1.138 1.478-1.795-.145.845-.203 1.667.029 2.496.237.851.727 1.282 1.463 1.282.187 0 .372-.023.553-.066 1.439-.332 2.192-1.424 2.975-2.592l-.115.342c-.213.642-.107 1.152.316 1.516.144.134.332.21.529.215.274 0 .5-.15.701-.285.05-.033.098-.066.146-.094 1.52-.913 2.846-2.081 3.973-3.104 1.917-1.743 3.57-3.416 5.033-5.1-.46 3.461-1.008 6.604-1.674 9.593-.057.257-.172.363-.512.474-3.313 1.078-6.527 2.546-9.825 4.491-2.891 1.705-6.173 3.903-8.593 7.278-1.542 2.151-2.293 4.53-2.173 6.882.12 2.35 1.113 4.635 2.87 6.603 1.47 1.647 2.957 2.414 4.68 2.414h.128c1.917-.044 3.591-.918 5.279-2.752 2.012-2.189 3.285-4.752 4.266-6.971 2.402-5.44 3.926-11.176 5.216-16.566l.008-.036c.091-.382.14-.54.463-.616 2.965-.71 6.015-1.056 9.32-1.056.992 0 2.02.033 3.052.097.776.049 1.27.23 1.553.574.296.357.384.923.278 1.778-.203 1.647-1.099 3.003-1.998 4.25-.028.039-.066.08-.104.124-.157.177-.397.443-.22.851l.055.129.138.011a.661.661 0 00.578-.266l.376-.445c.575-.677 1.168-1.379 1.647-2.162 1.058-1.732.915-3.568-.407-5.171-.734-.888-1.69-1.1-2.718-1.225zM57.36 51.372l-.123.23c-.632 1.18-1.284 2.401-1.968 3.575-.966 1.662-2.023 3.404-3.392 4.91-.313.344-.74.778-1.262 1.075-.239.133-.425.203-.553.203-.08 0-.268 0-.367-.675-.015-.1-.028-.199-.04-.292l-.012-.09c.137-1.882.839-3.602 1.508-5.035.817-1.752 1.778-3.15 2.937-4.274.698-.677 1.372-1.053 2.121-1.182.197-.038.395-.06.595-.066.302 0 .501.089.648.288.243.333.215.757-.094 1.333h.002zm20.387 10.121c.051.204.02.258.016.263-.012.015-.062.054-.298.075-.264.024-.534.044-.793.066-.393.03-.793.06-1.19.103.826-.626 1.493-1.415 2.154-2.26a5.4 5.4 0 00.11 1.753zm-3.416-.343c-.252.133-.45.206-.59.206-.09 0-.297 0-.348-.702-.006-.094-.01-.188-.016-.31 0-.061-.005-.13-.01-.208.098-1.781.842-3.505 1.532-4.982.766-1.637 1.688-2.976 2.821-4.095.745-.735 1.478-1.14 2.307-1.274.146-.027.294-.04.442-.043.316 0 .53.088.68.283.338.427.092.977.009 1.136l-.217.417c-1.572 2.991-3.197 6.083-5.5 8.656-.37.412-.732.712-1.11.916zM49.465 77.528c1.536-2.71 3.816-4.995 7.392-7.408 2.622-1.769 7.894-4.168 10.938-4.999-1.719 8.481-3.838 14.693-6.856 20.102-.945 1.696-1.84 2.858-2.9 3.772-1.034.893-2.209 1.364-3.397 1.364-1.205 0-2.402-.484-3.461-1.4-3.392-2.931-4.049-7.312-1.716-11.43zM91.327 73.602c0-.111-.02-.222-.057-.328a.781.781 0 00-.212-.31 1.603 1.603 0 00-.435-.273 3.596 3.596 0 00-.723-.223 6.192 6.192 0 01-.794-.218 2.254 2.254 0 01-.587-.3 1.173 1.173 0 01-.363-.42 1.241 1.241 0 01-.124-.571c0-.197.046-.39.133-.567.09-.18.217-.34.375-.465.178-.14.38-.247.595-.315a2.46 2.46 0 01.782-.117c.283-.004.564.037.833.122.227.071.438.186.622.337a1.452 1.452 0 01.52 1.145h-.595c0-.14-.031-.28-.091-.407a1.03 1.03 0 00-.265-.35 1.38 1.38 0 00-.434-.246 1.711 1.711 0 00-.59-.094 1.81 1.81 0 00-.59.084c-.146.047-.282.121-.4.219a.825.825 0 00-.3.633c0 .11.018.22.055.325a.651.651 0 00.21.273c.132.1.279.178.435.233.237.087.48.157.727.211.283.065.562.15.834.254.21.079.405.191.58.332.146.117.262.267.34.437.078.18.116.373.112.569.003.21-.045.419-.139.608-.094.186-.23.347-.396.471a1.921 1.921 0 01-.623.306 2.85 2.85 0 01-.814.109 2.809 2.809 0 01-.899-.133 2.019 2.019 0 01-.657-.355 1.5 1.5 0 01-.402-.514 1.409 1.409 0 01-.135-.599h.595c.005.19.061.373.163.532.092.138.213.253.355.338.147.086.306.147.472.18.168.037.34.055.511.056.201.003.402-.024.595-.08a1.37 1.37 0 00.432-.213c.11-.082.2-.187.265-.308a.794.794 0 00.084-.368zM93.213 68.041a.386.386 0 01.404-.402.386.386 0 01.41.399.393.393 0 01-.11.283.398.398 0 01-.3.114.38.38 0 01-.404-.399v.005zm.696 6.927h-.595v-5.373h.595v5.373zM95.277 72.232a4.194 4.194 0 01.141-1.13c.08-.311.219-.605.407-.864a1.84 1.84 0 01.65-.552c.27-.132.566-.199.866-.193.342-.01.68.07.983.23.275.156.507.377.677.644l.029-.775h.551v5.278a2.68 2.68 0 01-.153.936 1.98 1.98 0 01-.432.703 1.87 1.87 0 01-.674.442 2.47 2.47 0 01-1.904-.075 2.365 2.365 0 01-.462-.285 1.87 1.87 0 01-.381-.404l.33-.358c.187.242.423.443.692.588.248.125.522.19.8.186.23.004.458-.035.674-.116.188-.074.358-.19.496-.338.14-.155.244-.338.309-.536.074-.232.11-.475.106-.718v-.625a1.883 1.883 0 01-.677.583c-.302.148-.635.221-.971.214a1.811 1.811 0 01-.86-.2 1.904 1.904 0 01-.647-.56 2.607 2.607 0 01-.407-.865 4.087 4.087 0 01-.143-1.107v-.103zm.595.104c-.002.295.03.59.094.877.054.249.15.487.286.702.123.193.29.352.487.466.214.117.455.175.698.168.187.003.372-.022.551-.074a1.481 1.481 0 00.757-.516 2.03 2.03 0 00.238-.393v-2.493a2.1 2.1 0 00-.215-.4 1.482 1.482 0 00-.748-.57 1.725 1.725 0 00-.572-.087 1.387 1.387 0 00-.707.171 1.429 1.429 0 00-.489.47 2.188 2.188 0 00-.286.705c-.064.286-.096.58-.094.873v.101zM101.687 69.595l.019.92c.091-.151.198-.291.319-.418a1.92 1.92 0 011.425-.604c.243-.003.485.034.716.11.204.068.389.188.535.347.157.176.271.386.336.613.084.296.123.602.116.908v3.496h-.587v-3.5a2.301 2.301 0 00-.09-.695 1.118 1.118 0 00-.251-.447.918.918 0 00-.396-.24 1.777 1.777 0 00-.521-.073 1.48 1.48 0 00-1.027.392 1.88 1.88 0 00-.341.41 2.367 2.367 0 00-.227.475v3.68h-.588v-5.374h.562zM110.052 74.968a1.722 1.722 0 01-.077-.34 5.316 5.316 0 01-.037-.41 2.097 2.097 0 01-.725.594c-.16.08-.327.14-.499.184-.193.047-.39.069-.588.067a2.086 2.086 0 01-.709-.115 1.572 1.572 0 01-.542-.32 1.448 1.448 0 01-.472-1.09c-.004-.246.054-.49.168-.707.116-.216.282-.4.483-.537.235-.157.495-.272.769-.337a4.06 4.06 0 011.014-.117h1.097v-.61c0-.385-.118-.687-.354-.907-.236-.22-.579-.331-1.029-.333a1.851 1.851 0 00-.573.085c-.163.05-.316.129-.452.233a1.11 1.11 0 00-.296.345.865.865 0 00-.106.42l-.595-.005c.001-.205.052-.406.148-.586.104-.195.246-.366.418-.504.193-.156.412-.276.646-.355.27-.092.553-.137.838-.133.265-.002.528.034.782.109.225.066.435.177.615.328.172.149.308.336.397.546.1.242.148.503.143.765v2.602c0 .093 0 .188.01.288.01.1.017.195.032.288.014.092.032.181.052.266.016.075.038.149.066.22v.06l-.624.006zm-1.857-.427c.202.002.402-.026.595-.082.176-.05.343-.127.497-.226.143-.091.273-.203.385-.332.108-.125.197-.265.264-.415v-1.184h-1.015a3.663 3.663 0 00-.812.081 1.972 1.972 0 00-.605.236 1.118 1.118 0 00-.378.375.961.961 0 00-.132.5.995.995 0 00.323.741c.11.098.238.174.377.223.161.057.331.085.501.083zM113.015 68.22v1.375h1.108v.487h-1.106v3.583c-.005.153.014.307.056.454.031.1.083.19.154.266a.471.471 0 00.222.13c.086.021.175.032.264.032.086 0 .172-.006.257-.017l.222-.033.025.486a1.36 1.36 0 01-.284.063 2.788 2.788 0 01-.349.022 1.535 1.535 0 01-.462-.067.83.83 0 01-.368-.23 1.119 1.119 0 01-.24-.435 2.216 2.216 0 01-.086-.673v-3.58h-.989v-.488h.983V68.22h.593zM118.782 74.287c-.169.247-.4.445-.669.574-.278.138-.622.207-1.034.206a2.166 2.166 0 01-.716-.111c-.21-.072-.4-.194-.553-.355a1.613 1.613 0 01-.358-.629 3.024 3.024 0 01-.126-.935v-3.442h.588v3.452c-.007.243.026.487.098.72.053.172.144.331.264.465a.964.964 0 00.393.248c.154.05.315.075.477.074a2.26 2.26 0 00.627-.079 1.51 1.51 0 00.469-.223 1.33 1.33 0 00.326-.338c.087-.132.155-.276.202-.427v-3.889h.595v5.374h-.573l-.01-.684zM123.37 70.102a2.182 2.182 0 00-.4-.035 1.55 1.55 0 00-.543.09 1.347 1.347 0 00-.428.25 1.466 1.466 0 00-.31.382 2.155 2.155 0 00-.199.49v3.69h-.587v-5.374h.578l.009.854c.133-.28.337-.52.591-.697a1.58 1.58 0 01.916-.256 1.283 1.283 0 01.39.064l-.017.542zM126.279 75.067a2.33 2.33 0 01-.963-.2 2.252 2.252 0 01-.758-.546 2.525 2.525 0 01-.497-.831 3.046 3.046 0 01-.178-1.058v-.21a3.241 3.241 0 01.186-1.125 2.63 2.63 0 01.501-.859c.203-.23.45-.417.727-.549.273-.128.57-.194.871-.193.311-.006.62.057.904.184.256.118.482.292.661.511.186.23.324.495.408.78.095.32.141.654.138.988v.362h-3.813v.115c-.002.282.043.563.133.831.082.248.209.478.375.678.159.19.356.345.578.454.232.113.487.17.745.167.289.006.575-.053.837-.174.261-.13.487-.321.661-.556l.37.283a2.548 2.548 0 01-.308.367 1.888 1.888 0 01-.408.303c-.165.09-.341.159-.523.204a2.627 2.627 0 01-.647.074zm-.109-5.065a1.505 1.505 0 00-1.129.497 1.968 1.968 0 00-.36.574 2.799 2.799 0 00-.19.742h3.205v-.066a2.415 2.415 0 00-.109-.654 1.752 1.752 0 00-.289-.558A1.38 1.38 0 00126.17 70v.002z" fill="#786765"/></g><defs><linearGradient id="paint0_linear" x1="97.5" y1="10" x2="97.5" y2="782" gradientUnits="userSpaceOnUse"><stop stop-color="#fff"/><stop offset=".516" stop-color="#fff" stop-opacity="0"/></linearGradient><clipPath id="clip0"><path fill="#fff" d="M0 0h195v782H0z"/></clipPath></defs></svg>