<svg width="87" height="90" fill="none" xmlns="http://www.w3.org/2000/svg"><path d="M44.631 86.792l-.96.515-.961-.515-37.306-20-1.072-.575V23.783l1.072-.575 37.306-20 .96-.515.961.515 37.306 20 1.072.575v42.434l-1.072.575-37.306 20z" fill="#9B7A04" stroke="#9B7A04" stroke-width="4.066"/><path d="M49.592 29.562l-3.932-.006c-4.417 0-7.272 2.929-7.272 7.462v3.44h-3.954a.618.618 0 00-.618.619v4.985c0 .342.277.618.618.618h3.954V59.26c0 .341.276.618.618.618h5.158a.618.618 0 00.618-.618V46.68h4.623a.618.618 0 00.618-.618l.002-4.985a.62.62 0 00-.618-.619h-4.624v-2.916c0-1.402.334-2.114 2.16-2.114h2.648a.618.618 0 00.618-.619V30.18a.618.618 0 00-.617-.618z" fill="#fff"/></svg>