<svg width="87" height="90" fill="none" xmlns="http://www.w3.org/2000/svg"><g clip-path="url(#clip0)" fill="#4B3B00"><path d="M50.64 27.148H35.56c-5.765 0-10.455 4.69-10.455 10.455v15.082c0 5.765 4.69 10.455 10.455 10.455H50.64c5.765 0 10.455-4.69 10.455-10.455V37.603c0-5.765-4.69-10.455-10.455-10.455zm7.643 25.537c0 4.214-3.428 7.643-7.643 7.643H35.56c-4.214 0-7.643-3.429-7.643-7.643V37.603c0-4.214 3.428-7.643 7.643-7.643H50.64c4.215 0 7.643 3.429 7.643 7.643v15.082z"/><path d="M43.1 35.443c-5.35 0-9.701 4.352-9.701 9.701s4.352 9.7 9.7 9.7c5.35 0 9.701-4.351 9.701-9.7 0-5.35-4.351-9.7-9.7-9.7zm0 16.59a6.897 6.897 0 01-6.89-6.889 6.897 6.897 0 016.89-6.889 6.897 6.897 0 016.889 6.889 6.897 6.897 0 01-6.89 6.889zM52.94 36.709a1.406 1.406 0 100-2.812 1.406 1.406 0 000 2.812z"/></g><path d="M44.225 86.792l-.961.515-.96-.515-37.306-20-1.073-.575V23.783l1.073-.575 37.305-20 .96-.515.962.515 37.305 20 1.073.575v42.434l-1.073.575-37.305 20z" stroke="#9B7A04" stroke-width="4.066"/><defs><clipPath id="clip0"><path fill="#fff" d="M25.104 27.148h35.991v35.991H25.104z"/></clipPath></defs></svg>