<svg width="198" height="145" fill="none" xmlns="http://www.w3.org/2000/svg"><path d="M1.481 12.26h195v119.999l-97.5-46-97.5 46v-120z" fill="#FFEEB4"/><path d="M1 137.002l97.915-46.984 97.914 46.984" stroke="#9B7A04" stroke-width="2.369"/><path d="M1 143.319l97.915-46.984 97.914 46.984" stroke="#9B7A04" stroke-width="2.369"/><path d="M1 140.16l97.915-46.983 97.914 46.983" stroke="#FFF9E2" stroke-width="2.369"/><rect x="1.481" y=".259" width="195" height="24" rx="7" fill="#FFEEB4"/><path d="M55.458 43.665c.306-.655.466-1.267.267-1.998l.484.222 1.834.84c2.929 1.35 5.719 2.004 8.527 2.004.359 0 .723-.011 1.081-.033 1.1-.067 2.372-.255 3.472-1.134 1.291-1.03 1.696-2.997.917-4.477-.431-.823-1.119-1.24-2.044-1.24-.508 0-1.087.13-1.718.385-.279.112-.585.256-.694.548a.621.621 0 00.02.477c.03.076.08.14.143.186a.362.362 0 00.214.068c.151 0 .296-.085.436-.165.06-.038.122-.07.186-.097.122-.04.241-.087.356-.133.169-.07.34-.13.516-.177.16-.04.322-.06.486-.061.671 0 1.139.39 1.429 1.195.368 1.02-.19 2.28-1.269 2.87-.906.495-1.907.608-2.854.656-.264.013-.529.02-.798.02-2.834 0-5.71-.738-9.051-2.322-3.636-1.727-6.684-3.123-10.019-4.117-1.713-.51-3.56-.981-5.473-.981-.81-.004-1.62.088-2.412.274-2.085.495-3.803 1.66-4.967 3.372-1.164 1.712-1.67 3.832-1.449 6.11.248 2.557 1.455 4.332 3.494 5.135.684.276 1.406.42 2.135.426 1.46 0 2.834-.614 4.083-1.824 1.22-1.183 1.812-2.602 1.762-4.218 0-.027 0-.065.005-.105.01-.15.024-.36-.109-.513a.456.456 0 00-.162-.113.423.423 0 00-.19-.031h-.04c-.475.025-.486.488-.49.686 0 .032 0 .064-.004.095-.003.065 0 .125 0 .184v.132c-.117 1.937-1.495 3.76-3.135 4.15-.243.058-.49.087-.739.087-1.438 0-2.842-.973-3.58-2.478-.61-1.246-.771-2.649-.493-4.289.594-3.523 3.38-5.984 6.766-5.984.293 0 .587.019.879.055 3.966.493 7.56 2.007 10.556 3.421.062.022.118.06.165.109a.93.93 0 01-.095.247l-.027.058-1.081 2.271a561.633 561.633 0 00-3.536 7.529c-.499 1.092-1.012 2.201-1.51 3.274-1.604 3.465-3.264 7.048-4.71 10.675a8.435 8.435 0 00-.555 3.816c.11 1.39 1.07 2.397 2.293 2.397.278 0 .554-.048.818-.144l.473-.169-.425-.284c-.81-.543-1.033-1.096-.881-2.192.32-2.304 1.286-4.398 2.22-6.422l.24-.52a2734.07 2734.07 0 017.984-17.178l.269-.575zM162.226 65.19c.769-2.867 2.055-5.535 3.932-8.157.56-.784.798-1.528.747-2.342-.057-.906-.455-1.368-1.184-1.368-.103 0-.206.009-.309.024-.132.02-.271.045-.402.069a4.911 4.911 0 01-.875.106c-.082 0-.165-.004-.247-.014-.331-.039-.541-.133-.649-.288-.109-.155-.136-.4-.086-.752.021-.152.05-.3.08-.459.05-.237.087-.478.113-.72.073-.836-.438-1.446-1.302-1.554a1.179 1.179 0 00-.139-.009c-.622 0-.633.6-.638.855 0 .084-.011.168-.015.216-.491 6.53-4.829 12.81-5.769 13.944-.675.813-1.379 1.325-2.153 1.563-.235.08-.478.128-.723.14-.394 0-.622-.182-.779-1.173a4.575 4.575 0 01-.03-1.109c.101-1.256.437-2.456.752-3.464l.004-.015c.279-.89.418-1.337.657-1.528.238-.19.689-.192 1.504-.196 1.454-.006 2.677-.536 3.636-1.575.264-.288 1.933-2.28.137-4.156-.541-.566-1.322-.84-2.336-.64-.619.12-1.208.412-1.851.916-.846.663-1.523 1.475-2.02 2.11a2.744 2.744 0 01-1.712 1.047c-.062.013-.126.02-.189.022a.178.178 0 01-.111-.022s-.041-.064.01-.319c.175-.895.185-1.697.028-2.454-.088-.428-.273-1.317-1.19-1.476-.752-.13-1.299.24-1.624 1.1-.494 1.109-.208 2.73.641 3.618.327.343.392.635.259 1.152-.535 2.08-1.415 3.918-2.616 5.462-.536.689-1.203 1.547-2.063 2.061-.199.12-.458.256-.7.256a.695.695 0 01-.463-.191c-.34-.296-.442-.68-.331-1.245.075-.376.17-.747.286-1.11.896-2.79 5.757-13.348 6.392-14.589a.679.679 0 00.043.098.521.521 0 00.187.202.455.455 0 00.254.068c.286 0 .604-.216.86-.388l.092-.062c2.755-1.82 4.803-3.904 6.26-6.372.478-.799.811-1.69.981-2.625.137-.768.027-1.414-.318-1.868-.374-.495-.999-.72-1.78-.643-1.238.123-2.329.72-3.432 1.872-1.538 1.604-2.899 3.549-4.414 6.304-1.996 3.629-3.702 7.493-5.354 11.23-.569 1.286-1.156 2.614-1.747 3.914-.59 1.3-.921 2.584-.974 3.798-.047 1.083-.727 1.478-1.52 1.934a.446.446 0 01-.212.072c-.184 0-.239-.293-.254-.42-.05-.413.03-.833.125-1.224.639-2.668 1.774-5.111 3.084-7.797.294-.604.595-1.338.599-2.202a2.516 2.516 0 00-.15-.9 2.373 2.373 0 00-.458-.766 2.027 2.027 0 00-.662-.486 1.88 1.88 0 00-.782-.169 2.01 2.01 0 00-.945.242c-.529.279-.967.697-1.333 1.065-.477.479-.891 1.022-1.292 1.547l-.03.04.012-.037c.293-.859.187-1.613-.315-2.241a1.726 1.726 0 00-.608-.503 1.582 1.582 0 00-.748-.163 2.634 2.634 0 00-.578.072c-.885.2-1.567.726-2.062 1.161-.948.836-1.774 1.816-2.564 2.79.179-.438.363-.892.524-1.35.243-.689.125-1.368-.351-2.016-.174-.236-.388-.477-.661-.477-.326 0-.529.347-.648.608-.619 1.32-1.27 2.649-1.9 3.935l-.83 1.7c-.147.301-.294.602-.443.902-.745 1.508-1.514 3.069-2.032 4.732-.397 1.285-1.267 2.092-2.061 2.712-.22.171-.343.197-.396.197-.162 0-.217-.352-.236-.563-.052-.586.072-1.185.193-1.7.558-2.384 1.61-4.582 2.639-6.628 1.273-2.53 2.545-5.115 3.776-7.615 1.735-3.523 3.529-7.167 5.35-10.714.448-.87.529-1.823.221-2.614-.298-.776-.942-1.345-1.81-1.595a4.598 4.598 0 00-1.287-.182c-.767 0-1.575.183-2.47.558-2.21.928-3.814 2.709-5.144 4.305-3.332 3.992-5.838 8.558-7.651 12.089-.193.377-.335.486-.632.486-.043 0-.09 0-.14-.008a49.224 49.224 0 00-5.103-.279 38.728 38.728 0 00-5.713.412c-2.168.325-4.963.95-7.356 2.93-1.373 1.134-2.095 2.459-2.21 4.049a9.493 9.493 0 00.384 3.46 8.98 8.98 0 001.592 3.023 8.152 8.152 0 002.549 2.107 7.52 7.52 0 003.546.87c2.796 0 5.134-1.4 6.949-4.157 1.895-2.88 3.562-5.986 5.175-8.988.323-.602.647-1.203.971-1.803.165-.306.285-.399.512-.399.053 0 .106.004.158.012 1.723.251 3.674.536 5.546.994.027.009.055.02.082.033.086.045.179.07.274.076.089 0 .305-.035.397-.36.136-.49-.551-.783-.601-.815-.019-.01-.88-.47-1.282-.524a4.993 4.993 0 01-.356-.056c-.616-.13-1.245-.221-1.851-.31a30.997 30.997 0 01-1.78-.295c.026-.074.059-.144.1-.21.019-.033.038-.067.055-.1 1.911-3.703 3.696-6.635 5.619-9.232 1.307-1.768 2.77-3.6 4.601-5.014 1.41-1.09 2.796-1.573 4.251-1.483.43.027.495.107.503.123.009.015.044.118-.146.557-.055.124-.113.25-.171.371l-.021.046c-2.09 4.443-10.107 21.478-10.885 23.404-.555 1.374-1.139 2.988-1.037 4.74l.005.093c.049.871.11 1.955 1.112 2.335.221.084.453.128.686.13.678 0 1.336-.373 2.01-1.138.246-.281.474-.57.714-.876l.044-.055c.019.066.044.13.075.19.027.05.053.104.08.16.151.308.357.73.767.749h.022c.389 0 .634-.838.661-.898 1.675-3.556 3.814-7.65 6.981-11.05.793-.854 1.527-1.603 2.421-2.122a.961.961 0 01.447-.155c.066-.004.13.02.181.065.058.055.07.066-.091.298a1.967 1.967 0 00-.132.208c-.415.817-.843 1.645-1.256 2.448a236.896 236.896 0 00-2.015 3.955c-.727 1.475-1.542 3.212-1.95 5.136-.108.51-.181 1.263.426 1.906.172.182.319.322.508.322.257 0 .403-.251.512-.497.661-1.49 1.245-2.7 1.84-3.81 1.718-3.209 3.681-6.547 6.37-9.225.341-.34.682-.657 1.112-.801a.742.742 0 01.229-.043.332.332 0 01.171.04.365.365 0 01.132.125c.045.063.054.076-.079.258-.033.044-.066.09-.097.14-1.001 1.655-1.798 3.072-2.435 4.6-.967 2.32-1.759 4.442-1.667 6.898.053 1.44.685 2.298 1.69 2.298.414 0 .867-.15 1.347-.448.493-.306.882-.735 1.207-1.114.044-.054.084-.114.118-.177l.02-.034c.605 1.27 1.327 1.817 2.38 1.817a3.75 3.75 0 00.731-.079c.652-.128 1.272-.468 1.895-1.035 2.063-1.879 3.599-4.463 4.834-8.147.239-.716.387-1.089.875-1.089.078.001.157.01.234.025a.359.359 0 00.124 0 19.532 19.532 0 00-1.592 3.986c-.454 1.68-.478 3.059-.074 4.338.366 1.162 1.014 1.78 1.925 1.841.163.01.327.017.487.017 2.126 0 3.948-.964 5.269-2.786 2.434-3.355 3.948-7.199 5.209-10.875.521.276 1.109.4 1.864.4.356 0 .721-.026 1.075-.052h.007c-1.322 1.852-2.496 3.553-3.449 5.486-.846 1.716-1.743 3.743-1.667 6.087.051 1.573.896 1.807 1.394 1.807.244-.004.487-.047.719-.126 1.302-.421 2.162-1.45 2.993-2.448.119-.144.236-.283.356-.423.053-.062.177-.206.163-.403a.473.473 0 00-.05-.17.416.416 0 00-.11-.133.454.454 0 00-.295-.116.55.55 0 00-.39.192c-.147.149-.293.301-.435.449-.319.332-.649.676-.992.98-.059.053-.12.111-.183.17-.233.22-.497.47-.727.47a.352.352 0 01-.204-.072c-.223-.154-.185-.418-.01-.988.03-.09.056-.174.078-.257zm-49.369-10.863l-.981 1.768c-.906 1.635-1.761 3.179-2.655 4.737-.156.273-.31.545-.463.819-.862 1.523-1.754 3.1-2.878 4.447-1.166 1.4-2.633 2.254-4.362 2.537-.201.033-.404.05-.608.05-.925 0-1.837-.339-2.71-1.008-2.173-1.663-3.239-4.056-3.163-7.113.051-2.1 1.123-3.636 3.381-4.835 1.807-.961 3.749-1.276 5.578-1.474a34.672 34.672 0 013.752-.192c1.538-.002 3.171.083 5.109.264zm41.253 3.647h-.155c-.052 0-.095.004-.142.004-.226 0-.264-.046-.286-.09-.038-.084.176-.345.291-.485.077-.095.157-.193.222-.288.785-1.189 1.546-2.045 2.395-2.695l.141-.11c.227-.18.463-.368.672-.368a.41.41 0 01.265.112c.431.365.594.943.441 1.583-.213.911-.895 1.434-1.534 1.827-.529.324-1.162.497-1.993.545a1.09 1.09 0 00-.317-.035zm1.576-19.045c.144-.095.297-.188.43-.188.068 0 .134.026.188.072.142.116.14.284.104.615v.028c-.1.916-.405 1.786-.934 2.664-1.524 2.52-3.76 4.31-5.737 5.79-.08.053-.163.101-.248.144a4.764 4.764 0 00-.189.105c1.183-2.26 2.561-4.672 4.128-6.952.661-.965 1.421-1.735 2.258-2.28v.002z" fill="#786765"/><path d="M82.487 67.127c.606-.63 1.098-1.228 1.435-2.012l.109-.253-.239-.092a.791.791 0 00-.28-.056c-.313 0-.476.23-.585.382a1.178 1.178 0 01-.08.106c-.074.078-.144.158-.215.238-.247.276-.479.538-.762.726l-.1.068c-.165.114-.32.222-.463.222a.339.339 0 01-.19-.066c-.202-.136-.198-.36-.18-.72v-.044c.058-1.13.396-2.191.768-3.267.752-2.18 1.8-4.248 2.813-6.254l.589-1.17c.454-.91.342-1.729-.324-2.365-.295-.282-.505-.467-.727-.467-.33 0-.487.373-.668.804-.067.159-.139.315-.22.49-.463-.649-1.115-.957-2.019-.957-.094 0-.193 0-.295.01a5.636 5.636 0 00-3.335 1.345c-2.202 1.848-3.844 4.324-4.88 7.358-.4 1.169-.817 2.54-.705 4.02.112 1.481.554 2.32 1.463 2.69l-2.472.622.44-2.16c.564-2.775 1.117-5.5 1.672-8.225.074-.305.178-.6.311-.88.075-.175.152-.355.217-.542.25-.71.015-1.398-.61-1.8a1.043 1.043 0 00-.557-.179c-.272 0-.666.138-1.007.792-.05.098-.097.198-.141.295-.08.195-.182.378-.302.545-1.719 2.16-4.064 4.92-6.946 7.144-.094.072-.189.16-.28.243-.227.208-.462.424-.676.424a.423.423 0 01-.278-.125c-.35-.306-.213-.734.035-1.353l.066-.168c.127-.327.253-.655.378-.983 1.058-2.754 2.147-5.601 3.942-7.966.324-.428.11-.853-.005-1.08a.674.674 0 00-.235-.282.598.598 0 00-.336-.104.771.771 0 00-.364.1c-.931.503-1.987 1.08-2.397 2.409-.24.784-.52 1.628-.877 2.654-.284.816-.58 1.644-.866 2.444-.588 1.642-1.19 3.333-1.735 5.035l-.265-.019c-.035 0-.07-.004-.103-.004-.513 0-.727.288-.878.499-.026.034-.05.067-.076.098-.26.315-.579.671-.98.927l-.077.05c-.144.094-.281.184-.405.184a.286.286 0 01-.158-.05c-.211-.132-.213-.344-.198-.708v-.04c.04-1.003.299-1.944.672-3.05.803-2.375 1.945-4.626 3.05-6.803l.424-.834c.484-.959.37-1.776-.339-2.43-.297-.275-.493-.441-.705-.441-.317 0-.463.352-.636.76-.077.184-.16.364-.246.552-.516-.695-1.1-.974-1.983-.974h-.03c-1.443.011-2.764.548-3.928 1.598-2.463 2.22-4.164 5.149-5.052 8.703-.327 1.306-.342 2.448-.048 3.48.33 1.173 1.058 1.846 1.99 1.846.424-.01.84-.126 1.216-.339.834-.444 1.504-1.123 2.104-1.791.529-.59.991-1.232 1.478-1.944-.145.915-.203 1.805.029 2.703.237.922.727 1.39 1.463 1.39a2.29 2.29 0 00.553-.073c1.439-.36 2.192-1.542 2.975-2.807l-.115.37c-.213.695-.107 1.248.316 1.643a.77.77 0 00.529.232c.274 0 .5-.163.701-.308.05-.036.098-.072.146-.102 1.52-.99 2.846-2.254 3.973-3.362 1.917-1.888 3.57-3.7 5.033-5.525-.46 3.75-1.008 7.153-1.674 10.39-.057.28-.172.395-.512.515-3.313 1.167-6.527 2.758-9.825 4.864-2.891 1.847-6.173 4.227-8.593 7.883-1.542 2.33-2.293 4.907-2.173 7.454.12 2.546 1.113 5.02 2.87 7.152 1.47 1.783 2.957 2.614 4.68 2.614h.128c1.917-.047 3.591-.993 5.279-2.98 2.012-2.371 3.285-5.147 4.266-7.55 2.402-5.893 3.926-12.106 5.216-17.943l.008-.04c.091-.413.14-.585.463-.667 2.965-.77 6.015-1.144 9.32-1.144.992 0 2.02.036 3.052.106.776.052 1.27.25 1.553.62.296.388.384 1 .278 1.927-.203 1.784-1.099 3.252-1.998 4.603-.028.042-.066.087-.104.134-.157.192-.397.48-.22.923l.055.139.138.012a.621.621 0 00.348-.078.68.68 0 00.23-.21l.376-.483c.575-.733 1.168-1.493 1.647-2.34 1.058-1.877.915-3.866-.407-5.602-.734-.961-1.69-1.192-2.718-1.326zM58.36 55.642l-.123.25c-.632 1.278-1.284 2.6-1.968 3.871-.966 1.8-2.023 3.688-3.392 5.318-.313.373-.74.843-1.262 1.164-.239.144-.425.22-.553.22-.08 0-.268 0-.367-.73a19.044 19.044 0 01-.04-.317l-.012-.096c.137-2.04.839-3.902 1.508-5.455.817-1.897 1.778-3.411 2.937-4.628.698-.734 1.372-1.142 2.121-1.281.197-.042.395-.066.595-.072.302 0 .501.096.648.312.243.361.215.82-.094 1.444h.002zm20.387 10.963c.051.22.02.278.016.284-.012.017-.062.058-.298.081-.264.026-.534.048-.793.072-.393.032-.793.064-1.19.112.826-.678 1.493-1.533 2.154-2.448a6.322 6.322 0 00.11 1.899zm-3.416-.372c-.252.144-.45.223-.59.223-.09 0-.297 0-.348-.76-.006-.102-.01-.204-.016-.336 0-.066-.005-.14-.01-.225.098-1.93.842-3.797 1.532-5.396.766-1.773 1.688-3.224 2.821-4.436.745-.797 1.478-1.235 2.307-1.38a2.54 2.54 0 01.442-.047c.316 0 .53.096.68.307.338.462.092 1.059.009 1.23l-.217.453c-1.572 3.24-3.197 6.588-5.5 9.374-.37.447-.732.771-1.11.993zm-24.866 17.74c1.536-2.936 3.816-5.41 7.392-8.025 2.622-1.915 7.894-4.514 10.938-5.414-1.719 9.186-3.838 15.914-6.856 21.773-.945 1.837-1.84 3.096-2.9 4.086-1.034.966-2.209 1.477-3.397 1.477-1.205 0-2.402-.524-3.461-1.516-3.392-3.176-4.049-7.92-1.716-12.381z" fill="#786765"/></svg>