<svg width="87" height="90" fill="none" xmlns="http://www.w3.org/2000/svg"><path d="M44.038 86.792l-.961.515-.96-.515-37.306-20-1.073-.575V23.783l1.073-.575 37.305-20 .96-.515.962.515 37.305 20 1.073.575v42.434l-1.073.575-37.306 20z" fill="#9B7A04" stroke="#9B7A04" stroke-width="4.066"/><path d="M60.908 33.522a14.91 14.91 0 01-4.251 1.214 7.593 7.593 0 003.246-4.247c-1.426.885-3.001 1.51-4.68 1.86-1.353-1.502-3.283-2.432-5.389-2.432-4.085 0-7.374 3.453-7.374 7.686 0 .61.05 1.195.171 1.752-6.134-.311-11.562-3.373-15.208-8.037a7.982 7.982 0 00-1.01 3.884c0 2.661 1.316 5.02 3.277 6.386-1.185-.023-2.348-.382-3.333-.947v.085c0 3.734 2.557 6.836 5.911 7.55-.6.171-1.255.253-1.934.253-.473 0-.95-.028-1.397-.131.956 3.043 3.669 5.28 6.894 5.353-2.51 2.045-5.698 3.277-9.148 3.277-.605 0-1.186-.028-1.766-.105a20.177 20.177 0 0011.32 3.448c13.577 0 21-11.713 21-21.866 0-.34-.011-.668-.027-.993 1.464-1.083 2.695-2.434 3.698-3.99z" fill="#fff"/></svg>