<svg width="220" height="19" fill="none" xmlns="http://www.w3.org/2000/svg"><path d="M90.748 16.984l-.47.253-.47-.253-6.014-3.241-.521-.28V5.796l.52-.28 6.015-3.241.47-.254.47.254 6.014 3.24.521.281V13.462l-.52.28-6.015 3.242zM111.118 16.984l-.47.253-.47-.253-6.014-3.241-.521-.28V5.796l.521-.28 6.014-3.241.47-.254.47.254 6.014 3.24.521.281V13.462l-.521.28-6.014 3.242zM131.003 16.996l-.447.226-.447-.226-6.415-3.241-.544-.275V5.78l.544-.275 6.415-3.24.447-.226.447.226 6.415 3.24.544.275V13.48l-.544.275-6.415 3.24z" stroke="#4F4240" stroke-width="1.982"/><path stroke="#000" stroke-width=".926" d="M71.296 10.093H0"/><path stroke="#4F4240" stroke-width=".926" d="M219.444 10.093h-71.296"/></svg>